<?xml version="1.0" standalone="no"?>
<!DOCTYPE svg PUBLIC "-//W3C//DTD SVG 20010904//EN"
 "http://www.w3.org/TR/2001/REC-SVG-20010904/DTD/svg10.dtd">
<svg version="1.0" xmlns="http://www.w3.org/2000/svg"
 width="296.000000pt" height="296.000000pt" viewBox="0 0 296.000000 296.000000"
 preserveAspectRatio="xMidYMid meet">
<metadata>
Created by potrace 1.11, written by Peter Selinger 2001-2013
</metadata>
<g transform="translate(0.000000,296.000000) scale(0.100000,-0.100000)"
fill="#000000" stroke="none">
<path d="M1315 2953 c-129 -16 -378 -84 -432 -119 -13 -8 -23 -12 -23 -10 0 9
-167 -88 -241 -140 -138 -97 -347 -321 -399 -429 -8 -16 -18 -32 -21 -35 -10
-7 -99 -190 -93 -190 3 0 0 -9 -6 -21 -12 -22 -57 -168 -65 -209 -3 -14 -7
-37 -10 -51 -25 -132 -28 -399 -6 -509 6 -30 13 -64 15 -75 29 -150 131 -389
217 -510 19 -26 39 -54 44 -62 31 -47 199 -223 255 -268 98 -77 260 -170 395
-226 59 -25 187 -61 268 -75 96 -18 360 -25 452 -12 129 17 348 79 402 114 12
8 27 14 32 14 12 0 199 107 217 124 6 6 22 18 34 26 95 63 256 229 337 348 33
49 64 99 68 111 3 11 11 21 16 21 5 0 8 3 7 8 -1 4 15 41 34 82 86 178 129
368 134 585 2 131 -1 181 -21 305 -16 101 -76 281 -128 385 -30 61 -115 206
-126 215 -3 3 -24 28 -46 55 -21 28 -52 62 -67 78 -15 15 -28 32 -28 39 0 6
-2 9 -5 6 -3 -3 -28 17 -56 44 -152 148 -397 281 -616 337 -43 11 -91 22 -108
25 -16 3 -41 8 -55 12 -29 7 -330 12 -375 7z"/>
</g>
</svg>
